<?xml version="1.0" encoding="UTF-8"?>
<svg id="xs_hero" data-name="XiangShan Hero" xmlns="http://www.w3.org/2000/svg" xmlns:xlink="http://www.w3.org/1999/xlink" viewBox="0 0 335 90">
  <defs>
    <style>
      @media (prefers-color-scheme: light) {
        .cls-text {
          fill: url(#hero_gradient_palette_light);
        }

        .cls-mount {
          fill: #231815;
        }
      }

      @media (prefers-color-scheme: dark) {
        .cls-text {
          fill: url(#hero_gradient_palette_dark);
        }
  
        .cls-mount {
          fill: #f4d7d1;
        }
      }

      .cls-leaf {
        fill: #de4f2a;
      }

      .cls-mount, .cls-leaf {
        fill-rule: evenodd;
      }

      .cls-vein {
        fill: none;
        stroke: #ec6c2e;
        stroke-linecap: round;
        stroke-linejoin: round;
        stroke-width: .57px;
      }
    </style>
    <linearGradient id="hero_gradient_palette_light" data-name="hero_gradient_palette_light" x1="92.49" y1="40.86" x2="327.49" y2="40.86" gradientUnits="userSpaceOnUse">
      <stop offset=".03" stop-color="#500500"/>
      <stop offset="1" stop-color="#8d2c0e"/>
    </linearGradient>
    <linearGradient id="hero_gradient_palette_dark" data-name="hero_gradient_palette_dark" x1="92.49" y1="40.86" x2="327.49" y2="40.86" gradientUnits="userSpaceOnUse">
      <stop offset="0" stop-color="#de4f2a"/>
      <!-- <stop offset="0" stop-color="#e25054"/> -->
      <stop offset=".97" stop-color="#cc0e00"/>
    </linearGradient>
  </defs>
  <g id="XS-light">
    <g>
      <g>
        <polygon class="cls-mount" points="63.7 25.05 55.18 36.58 40.56 12.06 25.94 36.58 17.43 25.05 9.52 35.75 8.1 34.7 17.43 22.08 25.78 33.39 40.56 8.61 55.34 33.39 63.7 22.08 75.64 38.25 73.45 38.25 63.7 25.05"/>
        <polygon class="cls-mount" points="76.58 35.06 63.7 17.63 55.57 28.62 40.56 3.44 25.55 28.62 17.43 17.63 2.19 38.25 0 38.25 17.43 14.66 25.39 25.44 40.56 0 55.73 25.44 63.7 14.66 78.77 35.06 76.58 35.06"/>
        <path class="cls-mount" d="M8.1,36.84c.39,0,.71-.32,.71-.71s-.32-.71-.71-.71-.71,.32-.71,.71,.32,.71,.71,.71m0,1.41c1.17,0,2.12-.95,2.12-2.12s-.95-2.12-2.12-2.12-2.12,.95-2.12,2.12,.95,2.12,2.12,2.12Z"/>
        <path class="cls-mount" d="M78.32,36.84c.39,0,.71-.32,.71-.71s-.32-.71-.71-.71-.71,.32-.71,.71,.32,.71,.71,.71m0,1.41c1.17,0,2.12-.95,2.12-2.12s-.95-2.12-2.12-2.12-2.12,.95-2.12,2.12,.95,2.12,2.12,2.12Z"/>
        <path class="cls-leaf" d="M0,39.35l3.74,2.99c1.7,1.36,1.07,4.04,.6,5.36l-3.08,8.59s8.31-.08,10.12-.04c1.81,.04,2.22,.54,2.53,1.43l1.92,5.61,6.82-6.42c1.48-1.39,4.2-.77,3.79,2.19l-2.5,18.2,6.47-3.27c3.1-1.57,3.86,1.03,4.01,1.4l6.15,14.61,6.15-14.61c.16-.38,.92-2.97,4.01-1.4l6.47,3.27-2.5-18.2c-.41-2.96,2.31-3.58,3.79-2.19l6.81,6.42,1.92-5.61c.31-.9,.72-1.39,2.53-1.43,1.81-.04,10.12,.04,10.12,.04l-3.08-8.59c-.47-1.31-1.1-4,.6-5.36l3.74-2.99H0Z"/>
        <line class="cls-vein" x1="40.56" y1="81.33" x2="40.56" y2="41.66"/>
        <line class="cls-vein" x1="6.36" y1="52.33" x2="25.81" y2="41.1"/>
        <path class="cls-vein" d="M21.96,43.33c1.17,1.9,1.37,3.21,.39,5.31-.98,2.11-5.24,10.72-5.24,10.72"/>
        <path class="cls-vein" d="M40.56,59.86c-.86-.02-1.9,.61-2.49,1.14l-7.63,6.86"/>
        <path class="cls-vein" d="M17.95,45.47c-.49-.9-.96-1.28-2.03-1.38-1.06-.09-5.47-.38-5.47-.38"/>
        <line class="cls-vein" x1="74.76" y1="52.33" x2="55.31" y2="41.1"/>
        <path class="cls-vein" d="M59.17,43.33c-1.17,1.9-1.37,3.21-.39,5.31,.98,2.11,5.24,10.72,5.24,10.72"/>
        <path class="cls-vein" d="M63.17,45.47c.49-.9,.96-1.28,2.03-1.38,1.06-.09,5.47-.38,5.47-.38"/>
        <path class="cls-vein" d="M40.56,45.18c2.23-.06,3.47,.41,4.8,2.32,1.33,1.9,6.66,9.9,6.66,9.9"/>
        <path class="cls-vein" d="M40.56,46.93c-1.93,0-3.07,.39-3.97,1.22l-7.49,6.93"/>
        <path class="cls-vein" d="M40.56,61.98c.86-.02,1.9,.45,2.49,.84l7.63,5.05"/>
      </g>
      <path class="cls-text" d="M107.72,20.9V10.86h-7.46v-3.37h31.37v3.37h-6.93v10.04h8.09v3.37h-8.09v15.7h-3.71v-15.7h-9.82c-.6,5.77-2.66,11.54-9.41,15.81-.6-.79-1.95-2.06-2.85-2.62,5.96-3.67,7.94-8.39,8.54-13.19h-8.54v-3.37h8.81Zm3.64-10.04v10.04h9.63V10.86h-9.63Zm26.5,4.76c1.99,1.01,4.83,2.59,6.3,3.6l-2.1,2.85c-1.39-1.05-4.2-2.77-6.26-3.94l2.06-2.51Zm4.12,9.74l2.89,1.95c-1.5,4.01-3.45,8.54-5.21,12.14l-3.18-1.95c1.61-2.92,3.86-7.83,5.51-12.14Zm-2.29-19.82c1.99,1.09,4.83,2.77,6.26,3.82l-2.14,2.85c-1.35-1.12-4.2-2.92-6.18-4.2l2.06-2.47Zm30.62,1.5v3.22h-19.75v7.12c0,6.59-.64,16.23-5.1,22.48-.64-.56-2.14-1.5-3-1.87,4.23-5.96,4.65-14.46,4.65-20.61V7.04h23.2Zm-13.79,23.01c-1.2,2.74-3.04,5.81-4.57,7.76-.64-.52-1.99-1.35-2.77-1.76,1.57-1.8,3.19-4.46,4.2-6.9l3.15,.9Zm6.22-18.81l-1.5,2.85h7.79v13.27h-6.89v9.11c0,1.61-.26,2.47-1.42,2.96-1.16,.49-2.81,.53-5.25,.49-.15-.86-.56-2.14-.94-3.04,1.57,.08,3.15,.04,3.6,.04,.49,0,.64-.15,.64-.56v-8.99h-6.41V14.08h5.4c.37-1.16,.82-2.55,1.05-3.6l3.94,.75Zm-7.23,8.21h10.23v-2.74h-10.23v2.74Zm0,5.25h10.23v-2.77h-10.23v2.77Zm11.58,4.12c1.39,2.29,3.15,5.36,4.01,7.19l-3.3,1.46c-.75-1.91-2.44-5.1-3.78-7.46l3.07-1.2Zm24.63-23.83c.52,1.2,1.09,2.7,1.5,3.9h14.01v3.04h-33.05v-3.04h15.03l-1.05-3.07,3.56-.82Zm14.46,18.36v13.12c0,1.65-.37,2.32-1.61,2.77-1.16,.41-2.92,.45-5.43,.41-.19-.79-.67-1.87-1.09-2.62,1.54,.08,3.45,.08,3.9,.04,.49,0,.67-.15,.67-.6v-10.19h-23.76v13.68h-3.45V23.34h30.76Zm-3.86-9.59v7.76h-22.75v-7.76h22.75Zm-3.71,14.39v7.98h-12.81v1.76h-3.33v-9.74h16.15Zm-15.51-9.11h15.51v-2.81h-15.51v2.81Zm2.7,14.58h9.67v-2.96h-9.67v2.96Zm29.09-20.91c-.19,3.11-.86,7.49-1.8,10.31l-2.7-.94c.94-2.51,1.61-6.67,1.87-9.74l2.62,.37Zm17.69,22.6v-8.58h-7.64v-3.3h7.64v-7.12h-4.87c-.71,2.14-1.54,4.05-2.44,5.58-.67-.49-2.29-1.27-3.15-1.61,.49-.75,.94-1.61,1.35-2.59l-2.1,1.01c-.34-1.54-1.27-3.94-2.21-5.92v27.13h-3.56V5.16h3.56v7.05l2.21-.94c.98,1.72,1.95,4.01,2.47,5.62,1.16-2.92,1.99-6.48,2.47-10.01l3.49,.53c-.3,1.87-.67,3.75-1.16,5.55h3.94V5.31h3.56v7.64h8.17v3.33h-8.17v7.12h7.35v3.3h-7.35v8.58h9.18v3.37h-23.2v-3.37h10.46Zm16.42-22.3c.6-.15,1.16-.67,1.8-1.5,.6-.75,2.55-3.6,3.67-6.45l3.75,1.05c-1.2,2.36-2.81,4.76-4.38,6.71l7.05-.45c-.71-1.31-1.54-2.62-2.32-3.78l2.96-1.16c1.87,2.55,3.9,5.92,4.61,8.21l-3.15,1.35c-.19-.6-.45-1.24-.79-1.95-9.74,.75-11.13,.97-11.99,1.31-.19-.71-.79-2.4-1.2-3.34Zm15.33,5.58v17.54c0,1.69-.3,2.62-1.46,3.15-1.12,.52-2.81,.6-5.1,.6-.19-.94-.71-2.32-1.2-3.22,1.61,.08,3.15,.08,3.67,.04,.45,0,.6-.15,.6-.6v-3.56h-6.93v7.38h-3.3V18.58h13.71Zm-10.42,2.96v2.7h6.93v-2.7h-6.93Zm0,8.24h6.93v-2.85h-6.93v2.85Zm27.39-19.41c-2.92,1.39-6.74,2.66-10.23,3.67v3.11c0,1.27,.26,1.46,1.87,1.46h5.13c1.35,0,1.61-.6,1.8-4.12,.67,.56,2.14,1.09,3.11,1.31-.41,4.68-1.39,5.96-4.57,5.96h-5.88c-3.97,0-4.95-1.05-4.95-4.57V5.24h3.49v5.96c2.92-1.05,5.92-2.32,7.91-3.41l2.32,2.59Zm.41,16.79c-2.92,1.65-6.93,3.04-10.6,4.12v3.75c0,1.27,.34,1.5,1.95,1.5h5.25c1.46,0,1.72-.71,1.87-4.76,.75,.56,2.17,1.09,3.15,1.31-.41,5.17-1.39,6.56-4.72,6.56h-6c-3.97,0-4.98-1.05-4.98-4.61v-12.29h3.49v5.62c3.11-1.12,6.26-2.51,8.24-3.82l2.36,2.62ZM109.56,70.64h-4.5v11.13h-4.35v-27.62h9.03c5.7,0,9.97,2.02,9.97,8.02,0,4.27-2.29,6.82-5.77,7.91l6.74,11.69h-4.91l-6.22-11.13Zm-.34-3.48c3.97,0,6.18-1.65,6.18-4.98s-2.21-4.5-6.18-4.5h-4.16v9.48h4.16Zm16.08-13h4.35v27.62h-4.35v-27.62Zm9.63,24.06l2.55-3c1.99,1.95,4.68,3.26,7.38,3.26,3.3,0,5.13-1.57,5.13-3.9,0-2.51-1.84-3.3-4.38-4.42l-3.82-1.65c-2.7-1.12-5.62-3.19-5.62-7.23,0-4.35,3.78-7.61,9.07-7.61,3.26,0,6.3,1.35,8.32,3.49l-2.21,2.77c-1.72-1.54-3.67-2.47-6.11-2.47-2.81,0-4.61,1.39-4.61,3.52,0,2.4,2.21,3.26,4.42,4.2l3.78,1.61c3.3,1.39,5.62,3.41,5.62,7.46,0,4.42-3.67,8.06-9.71,8.06-3.78,0-7.31-1.54-9.82-4.08Zm23.2-10.19c0-8.96,5.51-14.35,12.52-14.35,3.41,0,6.11,1.65,7.8,3.49l-2.32,2.77c-1.46-1.42-3.18-2.47-5.4-2.47-4.76,0-8.09,3.97-8.09,10.45s3.11,10.57,7.98,10.57c2.51,0,4.42-1.16,6.07-2.96l2.36,2.77c-2.25,2.59-5.02,4.01-8.62,4.01-6.93,0-12.29-5.21-12.29-14.28Zm22.64,1.57h9.89v3.18h-9.89v-3.18Zm10.76-15.44h4.61l4.08,14.31c.94,3.15,1.57,5.85,2.51,9.03h.19c.97-3.18,1.61-5.88,2.55-9.03l4.05-14.31h4.46l-8.66,27.62h-5.13l-8.66-27.62Zm42.39-3.07c-.3,1.69-.64,3.33-1.05,4.98h5.85l.67-.11,2.36,.64c-.79,7.53-2.47,13.45-4.95,18.03,4.08,4.65,9.41,5.66,14.95,5.66,1.27,0,5.36,0,6.97-.04-.56,.86-1.2,2.7-1.39,3.71h-5.77c-6.37,0-12.22-1.2-16.71-6.22-2.32,3.26-5.17,5.62-8.51,7.31-.6-.82-2.06-2.21-2.96-2.77,3.71-1.72,6.78-4.2,9.18-7.68-1.31-2.1-2.44-4.68-3.37-7.76-.71,1.5-1.46,2.81-2.29,3.9-.67-.6-1.95-1.54-2.89-1.99,2.85-3.86,5.1-11.09,6.15-18.47l3.75,.82Zm-1.95,8.28l-.94,2.96c.9,3.67,2.06,6.6,3.41,8.96,1.54-3.22,2.66-7.16,3.3-11.92h-5.77Zm16.75-9.18v9.56l1.05-.6c2.77,3.11,6.29,7.35,7.94,10.12l-3.15,1.91c-1.2-2.17-3.56-5.36-5.85-8.21v14.99h-3.78v-27.77h3.78Zm17.06,26.01v-9.59h-4.09v-3.26h4.09v-7.53h-4.46v-3.3h12.03v3.3h-4.2v7.53h3.63v3.26h-3.63v8.54l3.93-1.27,.6,3.37c-4.08,1.39-8.51,2.89-11.92,4.01l-.86-3.64c1.39-.37,3.07-.86,4.87-1.42Zm17.09,4.31v-4.5h-8.21v-3.22h8.21v-3.86h-7.87v-17.13h19.41v17.13h-7.94v3.86h8.43v3.22h-8.43v4.5h9.67v3.22h-24.24v-3.22h10.98Zm-4.65-21.58h4.95v-4.08h-4.95v4.08Zm0,6.97h4.95v-4.12h-4.95v4.12Zm7.98-6.97h4.83v-4.08h-4.83v4.08Zm0,6.97h4.83v-4.12h-4.83v4.12Zm35.38-3.63h-3.82v-10.49h12.44v10.49h-7.27c1.69,.67,3.52,1.65,4.57,2.47l-1.09,1.12h6.52v3.15h-9.59c2.77,2.25,6.71,4.08,10.57,5.06-.79,.64-1.76,1.95-2.25,2.85l-1.42-.49v8.28h-3.45v-.79h-5.7v1.01h-3.26v-11.69h6.07c-1.87-1.24-3.56-2.7-4.98-4.23h-6.71c-1.42,1.5-3.04,2.92-4.95,4.23h6.63v11.47h-3.41v-.79h-5.28v1.01h-3.26v-8.73l-1.8,.79c-.34-.82-1.24-2.14-1.91-2.74,3.82-1.42,6.9-3.22,9.29-5.25h-8.43v-3.15h11.54c.97-1.2,1.72-2.4,2.29-3.6h-10.98v-10.49h11.95v10.27l2.77,.49c-.56,1.12-1.2,2.25-1.95,3.33h9.74c-1.24-.79-2.92-1.65-4.35-2.17l1.46-1.42Zm-16.45-3.04h5.4v-4.46h-5.4v4.46Zm5.36,21.62v-4.53h-5.28v4.53h5.28Zm10.53-21.62h5.77v-4.46h-5.77v4.46Zm5.77,21.62v-4.53h-5.7v4.53h5.7Z"/>
    </g>
  </g>
</svg>