<?xml version="1.0" encoding="UTF-8"?>
<svg id="xs_hero" data-name="XiangShan Hero" xmlns="http://www.w3.org/2000/svg" xmlns:xlink="http://www.w3.org/1999/xlink" viewBox="0 0 335 90">
  <defs>
    <style>
      @media (prefers-color-scheme: light) {
        .cls-text {
          fill: url(#hero_gradient_palette_light);
        }

        .cls-mount {
          fill: #231815;
        }
      }

      @media (prefers-color-scheme: dark) {
        .cls-text {
          fill: url(#hero_gradient_palette_dark);
        }
  
        .cls-mount {
          fill: #f4d7d1;
        }
      }

      .cls-leaf {
        fill: #de4f2a;
      }

      .cls-mount, .cls-leaf {
        fill-rule: evenodd;
      }

      .cls-vein {
        fill: none;
        stroke: #ec6c2e;
        stroke-linecap: round;
        stroke-linejoin: round;
        stroke-width: .57px;
      }
    </style>
    <linearGradient id="hero_gradient_palette_light" data-name="hero_gradient_palette_light" x1="92.49" y1="40.86" x2="327.49" y2="40.86" gradientUnits="userSpaceOnUse">
      <stop offset=".03" stop-color="#500500"/>
      <stop offset="1" stop-color="#8d2c0e"/>
    </linearGradient>
    <linearGradient id="hero_gradient_palette_dark" data-name="hero_gradient_palette_dark" x1="92.49" y1="40.86" x2="327.49" y2="40.86" gradientUnits="userSpaceOnUse">
      <stop offset="0" stop-color="#de4f2a"/>
      <!-- <stop offset="0" stop-color="#e25054"/> -->
      <stop offset=".97" stop-color="#cc0e00"/>
    </linearGradient>
  </defs>
  <g id="XS-light">
    <g>
      <g>
        <polygon class="cls-mount" points="63.7 25.05 55.18 36.58 40.56 12.06 25.94 36.58 17.43 25.05 9.52 35.75 8.1 34.7 17.43 22.08 25.78 33.39 40.56 8.61 55.34 33.39 63.7 22.08 75.64 38.25 73.45 38.25 63.7 25.05"/>
        <polygon class="cls-mount" points="76.58 35.06 63.7 17.63 55.57 28.62 40.56 3.44 25.55 28.62 17.43 17.63 2.19 38.25 0 38.25 17.43 14.66 25.39 25.44 40.56 0 55.73 25.44 63.7 14.66 78.77 35.06 76.58 35.06"/>
        <path class="cls-mount" d="M8.1,36.84c.39,0,.71-.32,.71-.71s-.32-.71-.71-.71-.71,.32-.71,.71,.32,.71,.71,.71m0,1.41c1.17,0,2.12-.95,2.12-2.12s-.95-2.12-2.12-2.12-2.12,.95-2.12,2.12,.95,2.12,2.12,2.12Z"/>
        <path class="cls-mount" d="M78.32,36.84c.39,0,.71-.32,.71-.71s-.32-.71-.71-.71-.71,.32-.71,.71,.32,.71,.71,.71m0,1.41c1.17,0,2.12-.95,2.12-2.12s-.95-2.12-2.12-2.12-2.12,.95-2.12,2.12,.95,2.12,2.12,2.12Z"/>
        <path class="cls-leaf" d="M0,39.35l3.74,2.99c1.7,1.36,1.07,4.04,.6,5.36l-3.08,8.59s8.31-.08,10.12-.04c1.81,.04,2.22,.54,2.53,1.43l1.92,5.61,6.82-6.42c1.48-1.39,4.2-.77,3.79,2.19l-2.5,18.2,6.47-3.27c3.1-1.57,3.86,1.03,4.01,1.4l6.15,14.61,6.15-14.61c.16-.38,.92-2.97,4.01-1.4l6.47,3.27-2.5-18.2c-.41-2.96,2.31-3.58,3.79-2.19l6.81,6.42,1.92-5.61c.31-.9,.72-1.39,2.53-1.43,1.81-.04,10.12,.04,10.12,.04l-3.08-8.59c-.47-1.31-1.1-4,.6-5.36l3.74-2.99H0Z"/>
        <line class="cls-vein" x1="40.56" y1="81.33" x2="40.56" y2="41.66"/>
        <line class="cls-vein" x1="6.36" y1="52.33" x2="25.81" y2="41.1"/>
        <path class="cls-vein" d="M21.96,43.33c1.17,1.9,1.37,3.21,.39,5.31-.98,2.11-5.24,10.72-5.24,10.72"/>
        <path class="cls-vein" d="M40.56,59.86c-.86-.02-1.9,.61-2.49,1.14l-7.63,6.86"/>
        <path class="cls-vein" d="M17.95,45.47c-.49-.9-.96-1.28-2.03-1.38-1.06-.09-5.47-.38-5.47-.38"/>
        <line class="cls-vein" x1="74.76" y1="52.33" x2="55.31" y2="41.1"/>
        <path class="cls-vein" d="M59.17,43.33c-1.17,1.9-1.37,3.21-.39,5.31,.98,2.11,5.24,10.72,5.24,10.72"/>
        <path class="cls-vein" d="M63.17,45.47c.49-.9,.96-1.28,2.03-1.38,1.06-.09,5.47-.38,5.47-.38"/>
        <path class="cls-vein" d="M40.56,45.18c2.23-.06,3.47,.41,4.8,2.32,1.33,1.9,6.66,9.9,6.66,9.9"/>
        <path class="cls-vein" d="M40.56,46.93c-1.93,0-3.07,.39-3.97,1.22l-7.49,6.93"/>
        <path class="cls-vein" d="M40.56,61.98c.86-.02,1.9,.45,2.49,.84l7.63,5.05"/>
      </g>
      <path class="cls-text" d="M99.01,12.29c0-6.47,3.59-10.3,8.73-10.3s8.73,3.86,8.73,10.3-3.56,10.47-8.73,10.47-8.73-4.02-8.73-10.47Zm14.22,0c0-4.68-2.17-7.56-5.49-7.56s-5.46,2.88-5.46,7.56,2.15,7.69,5.46,7.69,5.49-3.02,5.49-7.69Zm7.13-4.89h2.56l.27,1.66h.05c1.3-1.09,2.94-2.01,4.62-2.01,3.78,0,5.9,2.99,5.9,7.61,0,5.14-3.07,8.1-6.44,8.1-1.31,0-2.66-.62-3.92-1.71l.08,2.56v4.84h-3.13V7.39Zm10.17,7.31c0-3.13-1.01-5.06-3.51-5.06-1.17,0-2.28,.63-3.53,1.82v7.31c1.17,.98,2.34,1.33,3.24,1.33,2.17,0,3.81-1.93,3.81-5.41Zm5.9,.19c0-4.87,3.34-7.86,6.82-7.86,3.97,0,6.12,2.85,6.12,7.07,0,.63-.08,1.22-.16,1.6h-9.71c.24,2.85,2.04,4.57,4.62,4.57,1.33,0,2.47-.41,3.56-1.11l1.09,1.98c-1.36,.92-3.1,1.6-5.03,1.6-4.1,0-7.31-2.91-7.31-7.86Zm10.22-1.36c0-2.56-1.17-4.02-3.34-4.02-1.88,0-3.53,1.41-3.83,4.02h7.18Zm6.23-6.14h2.56l.27,2.09h.05c1.36-1.36,2.91-2.45,4.95-2.45,3.18,0,4.59,2.12,4.59,5.93v9.41h-3.13V13.35c0-2.58-.76-3.59-2.53-3.59-1.39,0-2.31,.68-3.64,2.01v10.6h-3.13V7.39Zm15.88,6.14h7.18v2.31h-7.18v-2.31Zm9.03,6.25l1.85-2.17c1.44,1.41,3.4,2.37,5.36,2.37,2.39,0,3.72-1.14,3.72-2.83,0-1.82-1.33-2.39-3.18-3.21l-2.77-1.2c-1.96-.82-4.08-2.31-4.08-5.25,0-3.15,2.75-5.52,6.58-5.52,2.36,0,4.57,.98,6.04,2.53l-1.6,2.01c-1.25-1.12-2.66-1.79-4.43-1.79-2.04,0-3.34,1.01-3.34,2.56,0,1.74,1.6,2.36,3.21,3.04l2.75,1.17c2.39,1.01,4.08,2.47,4.08,5.41,0,3.21-2.66,5.84-7.04,5.84-2.75,0-5.3-1.11-7.12-2.96Zm16.62-4.89c0-4.98,3.34-7.86,7.07-7.86s7.01,2.88,7.01,7.86-3.32,7.86-7.01,7.86-7.07-2.88-7.07-7.86Zm10.87,0c0-3.15-1.47-5.27-3.81-5.27s-3.83,2.12-3.83,5.27,1.47,5.25,3.83,5.25,3.81-2.07,3.81-5.25Zm6.69,1.93V7.39h3.15v9.05c0,2.56,.76,3.59,2.5,3.59,1.39,0,2.36-.65,3.59-2.23V7.39h3.15v14.98h-2.58l-.24-2.26h-.08c-1.36,1.58-2.83,2.64-4.87,2.64-3.21,0-4.62-2.12-4.62-5.93Zm17.08-9.43h2.56l.27,2.69h.05c1.06-1.9,2.64-3.04,4.27-3.04,.73,0,1.2,.11,1.66,.3l-.54,2.75c-.54-.16-.9-.24-1.52-.24-1.22,0-2.69,.84-3.62,3.24v9.3h-3.13V7.39Zm9.76,7.5c0-4.98,3.45-7.86,7.39-7.86,1.9,0,3.29,.76,4.38,1.71l-1.55,2.04c-.82-.71-1.66-1.17-2.66-1.17-2.53,0-4.32,2.12-4.32,5.27s1.74,5.25,4.21,5.25c1.25,0,2.36-.57,3.26-1.36l1.3,2.09c-1.39,1.22-3.15,1.88-4.87,1.88-4.05,0-7.15-2.88-7.15-7.86Zm13.35,0c0-4.87,3.34-7.86,6.82-7.86,3.97,0,6.12,2.85,6.12,7.07,0,.63-.08,1.22-.16,1.6h-9.71c.24,2.85,2.04,4.57,4.62,4.57,1.33,0,2.47-.41,3.56-1.11l1.09,1.98c-1.36,.92-3.1,1.6-5.03,1.6-4.1,0-7.31-2.91-7.31-7.86Zm10.22-1.36c0-2.56-1.17-4.02-3.34-4.02-1.88,0-3.53,1.41-3.83,4.02h7.18ZM100.13,34.97h3.15v8.18h8.56v-8.18h3.15v20.04h-3.15v-9.11h-8.56v9.11h-3.15v-20.04Zm19.5,.38c0-1.09,.79-1.85,1.96-1.85s1.93,.76,1.93,1.85c0,1.17-.79,1.9-1.93,1.9s-1.96-.73-1.96-1.9Zm.38,4.68h3.13v14.98h-3.13v-14.98Zm6.74,17.75c0-1.25,.79-2.42,2.17-3.26v-.11c-.76-.52-1.36-1.3-1.36-2.5s.82-2.2,1.69-2.77v-.11c-1.03-.79-1.98-2.2-1.98-4,0-3.37,2.69-5.36,5.79-5.36,.84,0,1.6,.16,2.17,.35h5.3v2.37h-2.83c.54,.62,.95,1.6,.95,2.72,0,3.29-2.47,5.17-5.6,5.17-.65,0-1.44-.16-2.09-.43-.46,.41-.81,.81-.81,1.55,0,.87,.6,1.47,2.5,1.47h2.77c3.51,0,5.36,1.09,5.36,3.62,0,2.91-3.02,5.25-7.8,5.25-3.62,0-6.23-1.33-6.23-3.94Zm10.98-.79c0-1.25-.98-1.63-2.77-1.63h-2.26c-.71,0-1.39-.05-2.01-.22-.9,.65-1.25,1.41-1.25,2.18,0,1.44,1.5,2.34,3.97,2.34,2.61,0,4.32-1.28,4.32-2.66Zm-1.85-11.96c0-1.98-1.25-3.15-2.83-3.15s-2.83,1.14-2.83,3.15,1.28,3.21,2.83,3.21,2.83-1.2,2.83-3.21Zm7.67-11.69h3.13v5.74l-.14,2.96c1.31-1.28,2.8-2.36,4.84-2.36,3.18,0,4.6,2.12,4.6,5.93v9.41h-3.13v-9.03c0-2.58-.76-3.59-2.53-3.59-1.39,0-2.31,.68-3.64,2.01v10.6h-3.13v-21.67Zm15.8,12.83h7.18v2.31h-7.18v-2.31Zm11.07-11.2h6.06c4.46,0,7.67,1.55,7.67,6.09s-3.21,6.36-7.56,6.36h-3.02v7.58h-3.15v-20.04Zm5.9,9.9c3.15,0,4.7-1.22,4.7-3.81s-1.66-3.53-4.84-3.53h-2.61v7.34h2.75Zm9.68,2.66c0-4.87,3.34-7.86,6.82-7.86,3.97,0,6.12,2.85,6.12,7.07,0,.63-.08,1.22-.16,1.6h-9.71c.24,2.85,2.04,4.57,4.62,4.57,1.33,0,2.47-.41,3.56-1.11l1.09,1.98c-1.36,.92-3.1,1.6-5.03,1.6-4.1,0-7.31-2.91-7.31-7.86Zm10.22-1.36c0-2.56-1.17-4.02-3.34-4.02-1.88,0-3.53,1.41-3.83,4.02h7.18Zm6.23-6.14h2.56l.27,2.69h.05c1.06-1.9,2.64-3.04,4.27-3.04,.73,0,1.2,.11,1.66,.3l-.54,2.75c-.54-.16-.9-.24-1.52-.24-1.22,0-2.69,.84-3.62,3.24v9.3h-3.13v-14.98Zm9.6,.19l2.04-.16v-1.88c0-3.07,1.41-5.19,4.73-5.19,1.03,0,1.96,.22,2.64,.49l-.63,2.36c-.52-.24-1.11-.35-1.63-.35-1.33,0-1.98,.87-1.98,2.66v1.88h3.02v2.53h-3.02v12.45h-3.13v-12.45h-2.04v-2.34Zm9.57,7.31c0-4.98,3.34-7.86,7.07-7.86s7.01,2.88,7.01,7.86-3.32,7.86-7.01,7.86-7.07-2.88-7.07-7.86Zm10.87,0c0-3.15-1.47-5.27-3.81-5.27s-3.83,2.12-3.83,5.27,1.47,5.25,3.83,5.25,3.81-2.07,3.81-5.25Zm6.91-7.5h2.56l.27,2.69h.05c1.06-1.9,2.64-3.04,4.27-3.04,.73,0,1.2,.11,1.66,.3l-.54,2.75c-.54-.16-.9-.24-1.52-.24-1.22,0-2.69,.84-3.62,3.24v9.3h-3.13v-14.98Zm11.12,0h2.56l.27,2.12h.05c1.31-1.39,2.77-2.47,4.65-2.47,2.23,0,3.45,1.03,4.11,2.75,1.5-1.58,2.99-2.75,4.87-2.75,3.13,0,4.6,2.12,4.6,5.93v9.41h-3.15v-9.03c0-2.58-.76-3.59-2.47-3.59-1.01,0-2.12,.65-3.37,2.01v10.6h-3.13v-9.03c0-2.58-.79-3.59-2.5-3.59-1.01,0-2.12,.65-3.34,2.01v10.6h-3.13v-14.98Zm24.77,11.01c0-3.24,2.72-4.89,8.94-5.57-.03-1.71-.65-3.24-2.86-3.24-1.58,0-3.04,.71-4.32,1.52l-1.17-2.12c1.55-.98,3.64-1.96,6.03-1.96,3.72,0,5.44,2.34,5.44,6.33v9h-2.55l-.24-1.71h-.11c-1.36,1.17-2.96,2.09-4.76,2.09-2.58,0-4.4-1.71-4.4-4.35Zm8.94,.08v-3.64c-4.43,.52-5.93,1.66-5.93,3.32,0,1.5,1.01,2.09,2.34,2.09s2.37-.63,3.59-1.77Zm7.56-11.09h2.56l.27,2.09h.05c1.36-1.36,2.91-2.45,4.95-2.45,3.18,0,4.6,2.12,4.6,5.93v9.41h-3.13v-9.03c0-2.58-.76-3.59-2.53-3.59-1.39,0-2.31,.68-3.64,2.01v10.6h-3.13v-14.98Zm15.91,7.5c0-4.98,3.45-7.86,7.39-7.86,1.9,0,3.29,.76,4.38,1.71l-1.55,2.04c-.82-.71-1.66-1.17-2.66-1.17-2.53,0-4.32,2.12-4.32,5.27s1.74,5.25,4.21,5.25c1.25,0,2.36-.57,3.26-1.36l1.3,2.09c-1.39,1.22-3.15,1.88-4.87,1.88-4.05,0-7.15-2.88-7.15-7.86Zm13.35,0c0-4.87,3.34-7.86,6.82-7.86,3.97,0,6.12,2.85,6.12,7.07,0,.63-.08,1.22-.16,1.6h-9.71c.24,2.85,2.04,4.57,4.62,4.57,1.33,0,2.47-.41,3.56-1.11l1.09,1.98c-1.36,.92-3.1,1.6-5.03,1.6-4.1,0-7.31-2.91-7.31-7.86Zm10.22-1.36c0-2.56-1.17-4.02-3.34-4.02-1.88,0-3.53,1.41-3.83,4.02h7.18ZM106.54,79.56h-3.26v8.07h-3.15v-20.04h6.55c4.13,0,7.23,1.47,7.23,5.82,0,3.1-1.66,4.95-4.19,5.74l4.89,8.48h-3.56l-4.51-8.07Zm-.24-2.53c2.88,0,4.49-1.2,4.49-3.62s-1.6-3.26-4.49-3.26h-3.02v6.88h3.02Zm11.67-9.43h3.15v20.04h-3.15v-20.04Zm6.99,17.45l1.85-2.17c1.44,1.41,3.4,2.37,5.36,2.37,2.39,0,3.72-1.14,3.72-2.83,0-1.82-1.33-2.39-3.18-3.21l-2.77-1.2c-1.96-.82-4.08-2.31-4.08-5.25,0-3.15,2.75-5.52,6.58-5.52,2.36,0,4.57,.98,6.04,2.53l-1.6,2.01c-1.25-1.12-2.66-1.79-4.43-1.79-2.04,0-3.34,1.01-3.34,2.56,0,1.74,1.6,2.36,3.21,3.04l2.75,1.17c2.39,1.01,4.08,2.47,4.08,5.41,0,3.21-2.66,5.84-7.04,5.84-2.75,0-5.3-1.11-7.12-2.96Zm16.83-7.39c0-6.5,4-10.41,9.08-10.41,2.47,0,4.43,1.2,5.66,2.53l-1.69,2.01c-1.06-1.03-2.31-1.79-3.91-1.79-3.45,0-5.87,2.88-5.87,7.58s2.26,7.67,5.79,7.67c1.82,0,3.21-.84,4.4-2.15l1.71,2.01c-1.63,1.88-3.64,2.91-6.25,2.91-5.03,0-8.92-3.78-8.92-10.36Zm16.43,1.14h7.18v2.31h-7.18v-2.31Zm7.8-11.2h3.34l2.96,10.39c.68,2.28,1.14,4.24,1.82,6.55h.14c.71-2.31,1.17-4.27,1.85-6.55l2.94-10.39h3.24l-6.28,20.04h-3.72l-6.28-20.04Zm24.96,0h6.06c4.46,0,7.67,1.55,7.67,6.09s-3.21,6.36-7.56,6.36h-3.02v7.58h-3.15v-20.04Zm5.9,9.9c3.15,0,4.7-1.22,4.7-3.81s-1.66-3.53-4.84-3.53h-2.61v7.34h2.75Zm11.45-4.84h2.56l.27,2.69h.05c1.06-1.9,2.64-3.04,4.27-3.04,.73,0,1.2,.11,1.66,.3l-.54,2.75c-.54-.16-.9-.24-1.52-.24-1.22,0-2.69,.84-3.62,3.24v9.3h-3.13v-14.98Zm9.76,7.5c0-4.98,3.34-7.86,7.07-7.86s7.01,2.88,7.01,7.86-3.32,7.86-7.01,7.86-7.07-2.88-7.07-7.86Zm10.87,0c0-3.15-1.47-5.27-3.81-5.27s-3.83,2.12-3.83,5.27,1.47,5.25,3.83,5.25,3.81-2.07,3.81-5.25Zm5.85,0c0-4.98,3.45-7.86,7.39-7.86,1.9,0,3.29,.76,4.38,1.71l-1.55,2.04c-.82-.71-1.66-1.17-2.66-1.17-2.53,0-4.32,2.12-4.32,5.27s1.74,5.25,4.21,5.25c1.25,0,2.36-.57,3.26-1.36l1.3,2.09c-1.39,1.22-3.15,1.88-4.87,1.88-4.05,0-7.15-2.88-7.15-7.86Zm13.35,0c0-4.87,3.34-7.86,6.82-7.86,3.97,0,6.12,2.85,6.12,7.07,0,.63-.08,1.22-.16,1.6h-9.71c.24,2.85,2.04,4.57,4.62,4.57,1.33,0,2.47-.41,3.56-1.11l1.09,1.98c-1.36,.92-3.1,1.6-5.03,1.6-4.1,0-7.31-2.91-7.31-7.86Zm10.22-1.36c0-2.56-1.17-4.02-3.34-4.02-1.88,0-3.53,1.41-3.83,4.02h7.18Zm4.65,7.12l1.5-2.04c1.31,1.06,2.61,1.74,4.21,1.74,1.77,0,2.61-.87,2.61-2.01,0-1.36-1.66-1.96-3.29-2.58-1.98-.76-4.19-1.82-4.19-4.35s2.01-4.38,5.33-4.38c1.98,0,3.67,.81,4.84,1.77l-1.44,1.93c-1.06-.76-2.12-1.31-3.32-1.31-1.69,0-2.45,.82-2.45,1.85,0,1.25,1.47,1.74,3.13,2.36,2.07,.79,4.38,1.71,4.38,4.51,0,2.53-1.98,4.59-5.68,4.59-2.07,0-4.19-.9-5.63-2.09Zm13.05,0l1.5-2.04c1.31,1.06,2.61,1.74,4.21,1.74,1.77,0,2.61-.87,2.61-2.01,0-1.36-1.66-1.96-3.29-2.58-1.98-.76-4.19-1.82-4.19-4.35s2.01-4.38,5.33-4.38c1.98,0,3.67,.81,4.84,1.77l-1.44,1.93c-1.06-.76-2.12-1.31-3.32-1.31-1.69,0-2.45,.82-2.45,1.85,0,1.25,1.47,1.74,3.13,2.36,2.07,.79,4.38,1.71,4.38,4.51,0,2.53-1.98,4.59-5.68,4.59-2.07,0-4.19-.9-5.63-2.09Zm13.57-5.76c0-4.98,3.34-7.86,7.07-7.86s7.01,2.88,7.01,7.86-3.32,7.86-7.01,7.86-7.07-2.88-7.07-7.86Zm10.87,0c0-3.15-1.47-5.27-3.81-5.27s-3.83,2.12-3.83,5.27,1.47,5.25,3.83,5.25,3.81-2.07,3.81-5.25Zm6.91-7.5h2.56l.27,2.69h.05c1.06-1.9,2.64-3.04,4.27-3.04,.73,0,1.2,.11,1.66,.3l-.54,2.75c-.54-.16-.9-.24-1.52-.24-1.22,0-2.69,.84-3.62,3.24v9.3h-3.13v-14.98Z"/>
    </g>
  </g>
</svg>