<?xml version="1.0" encoding="UTF-8"?>
<svg id="_图层_2" data-name="图层 2" xmlns="http://www.w3.org/2000/svg" viewBox="0 0 65.18 72.32">
  <defs>
    <style>
      .cls-1, .cls-2 {
        fill: #fff;
        fill-rule: evenodd;
      }

      .cls-3 {
        fill: none;
        stroke: #ed6c2f;
        stroke-linecap: round;
        stroke-linejoin: round;
        stroke-width: .57px;
      }

      .cls-2 {
        opacity: .6;
      }
    </style>
  </defs>
  <g id="_图层_1-2" data-name="图层 1">
    <path class="cls-1" d="M6.51,29.6c.31,0,.57-.25,.57-.57s-.25-.57-.57-.57-.57,.25-.57,.57,.25,.57,.57,.57m0,1.13c.94,0,1.7-.76,1.7-1.7s-.76-1.7-1.7-1.7-1.7,.76-1.7,1.7,.76,1.7,1.7,1.7Z"/>
    <polygon class="cls-1" points="51.18 20.13 44.34 29.39 32.59 9.69 20.84 29.39 14 20.13 7.65 28.73 6.51 27.88 14 17.74 20.72 26.83 32.59 6.92 44.46 26.83 51.18 17.74 60.78 30.73 59.02 30.73 51.18 20.13"/>
    <polygon class="cls-1" points="61.53 28.17 51.18 14.16 44.65 23 32.59 2.77 20.53 23 14 14.16 1.76 30.73 0 30.73 14 11.78 20.4 20.44 32.59 0 44.78 20.44 51.18 11.78 63.29 28.17 61.53 28.17"/>
    <path class="cls-1" d="M62.94,29.6c.31,0,.57-.25,.57-.57s-.25-.57-.57-.57-.57,.25-.57,.57,.25,.57,.57,.57m0,1.13c.94,0,1.7-.76,1.7-1.7s-.76-1.7-1.7-1.7-1.7,.76-1.7,1.7,.76,1.7,1.7,1.7Z"/>
    <path class="cls-2" d="M0,31.62l3.01,2.4c1.36,1.09,.86,3.25,.48,4.3l-2.47,6.9s6.68-.07,8.13-.03c1.45,.03,1.78,.43,2.03,1.15l1.54,4.51,5.48-5.16c1.19-1.12,3.37-.62,3.04,1.76l-2.01,14.62,5.2-2.63c2.49-1.26,3.1,.82,3.23,1.13l4.94,11.74,4.94-11.74c.13-.3,.74-2.39,3.23-1.13l5.2,2.63-2.01-14.62c-.33-2.38,1.86-2.88,3.04-1.76l5.48,5.16,1.54-4.51c.25-.72,.58-1.12,2.03-1.15,1.45-.03,8.13,.03,8.13,.03l-2.47-6.9c-.38-1.05-.88-3.21,.48-4.3l3-2.4H0Z"/>
    <line class="cls-3" x1="32.59" y1="65.35" x2="32.59" y2="33.47"/>
    <line class="cls-3" x1="5.11" y1="42.05" x2="20.74" y2="33.03"/>
    <path class="cls-3" d="M17.64,34.81c.94,1.53,1.1,2.58,.32,4.27-.79,1.69-4.21,8.61-4.21,8.61"/>
    <path class="cls-3" d="M32.59,48.1c-.69-.02-1.52,.49-2,.92l-6.13,5.52"/>
    <path class="cls-3" d="M14.42,36.54c-.39-.72-.77-1.03-1.63-1.11-.85-.07-4.4-.3-4.4-.3"/>
    <line class="cls-3" x1="60.07" y1="42.05" x2="44.45" y2="33.03"/>
    <path class="cls-3" d="M47.54,34.81c-.94,1.53-1.1,2.58-.32,4.27,.79,1.69,4.21,8.61,4.21,8.61"/>
    <path class="cls-3" d="M50.76,36.54c.39-.72,.77-1.03,1.63-1.11,.85-.07,4.4-.3,4.4-.3"/>
    <path class="cls-3" d="M32.59,36.3c1.79-.05,2.79,.33,3.86,1.86,1.07,1.53,5.35,7.95,5.35,7.95"/>
    <path class="cls-3" d="M32.59,37.71c-1.55,0-2.47,.31-3.19,.98l-6.02,5.57"/>
    <path class="cls-3" d="M32.59,49.8c.69-.01,1.52,.36,2,.68l6.13,4.06"/>
  </g>
</svg>